<svg viewBox="128 225 195 335" xmlns="http://www.w3.org/2000/svg"><defs><linearGradient id="slg" x1="50%" x2="50%" y1="0%" y2="100%"><stop offset="0%" stop-color="#CC99FF"/><stop offset="100%" stop-color="#8020FF"/></linearGradient></defs><rect x="128" y="225" width="195" height="335" rx="32" fill="#1a1a2e"/><path fill="url(#slg)" d="M197.8 245.8c-14.8-11.5-36-8.7-47.5 6.1s-8.7 36 6.1 47.5L251.3 373c14.8 11.5 36 8.7 47.5-6.1s8.7-36-6.1-47.5l-94.9-73.6z"/><path fill="#FFF" d="M229.8 409.8a33.7 33.7 0 0 0-41.2-1.9 33.7 33.7 0 0 0-1.9 41.2c11.6 15.1 36.3 11.2 47.7-6.2 3.6-5.6 4.7-12.4 3-18.7a33.5 33.5 0 0 0-7.6-14.4z"/><path fill="#FFF" d="M197.8 409.8c-14.8-11.5-36-8.7-47.5 6.1s-8.7 36 6.1 47.5L251.3 537c14.8 11.5 36 8.7 47.5-6.1s8.7-36-6.1-47.5l-94.9-73.6z"/></svg>
